<svg viewBox="255 197.9976 380 115.3381" width="5000" height="1517.6065789473682" xmlns="http://www.w3.org/2000/svg" xmlns:xlink="http://www.w3.org/1999/xlink" preserveAspectRatio="none"><defs></defs><style>.companyName {fill:#08376B;fill-opacity:1;}.icon1 {fill:#35C0ED;fill-opacity:1;}.icon2 {fill:#9AEBA6;fill-opacity:1;}.icon3 {fill:#2F90B0;fill-opacity:1;}.icon3-str {stroke:#2F90B0;stroke-opacity:1;}.shapeStroke-str {stroke:#08376B;stroke-opacity:1;}</style><g opacity="1" transform="rotate(0 255 209.5314)">
<svg width="92.5854" height="92.2704" x="255" y="209.5314" version="1.1" preserveAspectRatio="none" viewBox="0.6308586001396179 0.6374325752258301 3.737841844558716 3.7251267433166504">
  <g transform="matrix(1 0 0 1 0 0)" class="icon1"><title>Wood_Texture_Carpentry_Ring_Texture_Timber_Wood</title><path d="M4.09129,1.66324c-.00819.0712-.08964.0712-.14329.09237-.01548.005-.031.01048-.0458.01684L3.87,1.78468a.205.205,0,0,0-.02865.01475L3.81366,1.811a.38114.38114,0,0,0-.05323.0273.21887.21887,0,0,1-.09.02731.21127.21127,0,0,0-.07091.02057c-.01568.00794-.03368.01221-.05017.019l-.00587.01051c-.00182.00429.00576.01222.01217.01294l.02071.00208.03469.001c.01616.001.03234.00209.0484.004a.2068.2068,0,0,1,.09629.03429c.01291.00909.02641.01754.04018.02547a.09662.09662,0,0,0,.03083.01425.20161.20161,0,0,1,.06886.02855.2807.2807,0,0,0,.03064.01479l.03225.01165c.055.02.1106.03864.16546.06273l.03366.01476a.30358.30358,0,0,1,.13943.069.19816.19816,0,0,1,.0256.02929.182.182,0,0,1,.019.03642.17444.17444,0,0,0,.01957-.03624A.136.136,0,0,0,4.3687,2.206a.17472.17472,0,0,0-.11257-.16345q-.01678-.01362-.03472-.02605A.77828.77828,0,0,0,4.14625,1.971L4.124,1.95285l-.01983-.01856a.14264.14264,0,0,1-.02225-.0288c-.03952-.06109.05821-.08553.08264-.11811.03258-.04479-.05294-.11-.08552-.15882.00815.00407,0,.02036.01068.022A.038.038,0,0,1,4.09129,1.66324Z"></path><path d="M3.56146,3.0247a.25615.25615,0,0,1-.09019-.03136.83018.83018,0,0,0-.09607-.0377c-.04905-.00531-.09385-.02573-.14185-.03527a.07781.07781,0,0,1-.02575-.0099.84638.84638,0,0,1-.10014-.05915.09138.09138,0,0,0-.0307-.0152.52628.52628,0,0,1-.16072-.079A.03053.03053,0,0,0,2.88928,2.752a.24881.24881,0,0,0-.07106.02582.42686.42686,0,0,1-.1077.04478.28646.28646,0,0,1-.11837.01277c-.01173-.001-.0233-.00382-.035-.00546a.02952.02952,0,0,0-.02515.00893L2.52,2.8543a.26528.26528,0,0,1-.03082.04179c-.03433.03171-.07021.06219-.10667.09208a.47651.47651,0,0,1-.05115.03386c-.01551.00964-.03236.01769-.04733.02794a.177.177,0,0,1-.05036.02293.14056.14056,0,0,0-.0509.02016l.003.00472a.37353.37353,0,0,0,.14921.00391.96313.96313,0,0,0,.15143-.03381.17808.17808,0,0,1,.10429-.00523.29154.29154,0,0,0,.13324-.00021.21837.21837,0,0,1,.11853.00644.78059.78059,0,0,0,.17249.03284c.05113.00521.10258.00749.15363.0138a.27337.27337,0,0,1,.055.00879.13832.13832,0,0,0,.06907.00222.23039.23039,0,0,0,.08329-.02905A.31137.31137,0,0,1,3.48821,3.051a.2667.2667,0,0,1,.05468-.00629.06134.06134,0,0,0,.02021-.00244l.00624-.009Zm-.38378.00578a.24509.24509,0,0,0-.11053.00036.125.125,0,0,1-.06889-.00471.38371.38371,0,0,1-.09506-.0413.09943.09943,0,0,0-.06683-.01536.431.431,0,0,0-.11494.0265.13848.13848,0,0,1-.12711-.01712.02012.02012,0,0,1-.00451-.02341.11382.11382,0,0,1,.0444-.03907.07153.07153,0,0,1,.05222-.00368A.12074.12074,0,0,0,2.71,2.91033a.194.194,0,0,1,.05581-.005.1141.1141,0,0,0,.03486-.00255c.02476-.00756.05135-.0058.07574-.01157a.11292.11292,0,0,1,.087.01246.78375.78375,0,0,0,.13559.05293.16008.16008,0,0,0,.03436.0047c.01387.00154.02791.002.04159.00441a.02379.02379,0,0,1,.01966.0163.17158.17158,0,0,1,.00571.03078A.0186.0186,0,0,1,3.17768,3.03047Z"></path><path d="M1.1618,1.35425c.11552.00554.22954.00554.34338.01428l.03626.00468c.04821.007.096.01718.14326.02889l.00691.00223a.45365.45365,0,0,1,.10466.02861c.03914.02243.07662.04713.11471.07088a.41542.41542,0,0,1,.088.06862.05064.05064,0,0,0,.03864.01623.8636.8636,0,0,1,.14209.0211c.0094.00107.01847.00645.02778.007a.32757.32757,0,0,1,.12278.03549.12646.12646,0,0,0,.03385.01048c.04.00637.08028.01106.12019.01756.03275.00533.0652.01233.09774.01857l.13271.02541c.01627.00313.0328.00543.0487.00977a.39471.39471,0,0,0,.17467.00524.21567.21567,0,0,1,.07673-.0018.20866.20866,0,0,0,.06258.00272.282.282,0,0,1,.12408.01736.05892.05892,0,0,0,.0468-.00077c.03689-.01711.07842-.02344.11668-.03726a.3756.3756,0,0,0,.0504-.01934.59774.59774,0,0,1,.13719-.05505A.27094.27094,0,0,0,3.60168,1.624a.24715.24715,0,0,1,.035-.01858.72029.72029,0,0,0,.11033-.0475l.02718-.01249a.14315.14315,0,0,1,.02846-.01085.24193.24193,0,0,1,.03055-.006A.10791.10791,0,0,0,3.966,1.41522a.1136.1136,0,0,0-.01071-.03573.14317.14317,0,0,0-.01876-.03192c-.00407-.00407-.01629-.01222-.02036-.00815a.179.179,0,0,1-.14428.07351L3.745,1.42063a.19461.19461,0,0,0-.07324.0408.24822.24822,0,0,1-.0362.02823.22406.22406,0,0,1-.04146.02072.17664.17664,0,0,0-.04471.027c-.02951.02227-.06133.04214-.09258.06259a.0667.0667,0,0,1-.01879.00726.30529.30529,0,0,1-.10254.01172c-.03488-.00246-.06982-.00514-.10477-.00627a.354.354,0,0,0-.11765.00757.102.102,0,0,1-.04849.00126c-.01616-.00287-.03263-.00437-.04861-.008a.12234.12234,0,0,0-.05561-.00081.21188.21188,0,0,1-.07668.00426.06154.06154,0,0,0-.021,0,.57277.57277,0,0,1-.12623.00747.13154.13154,0,0,0-.02817.00125.26434.26434,0,0,1-.1123-.0054.62018.62018,0,0,1-.1922-.06957A.54752.54752,0,0,0,2.295,1.4994c-.01584-.005-.03057-.01306-.04605-.01923a.29165.29165,0,0,1-.08378-.05085A.7199.7199,0,0,0,2.103,1.38387a.11632.11632,0,0,0-.02541-.01259c-.02241-.00833-.04509-.01607-.0678-.02374a.101.101,0,0,0-.021-.00516.75016.75016,0,0,1-.12729-.02763.1819.1819,0,0,0-.043-.00508.56678.56678,0,0,1-.12276-.01253.07317.07317,0,0,0-.02861-.0001.35812.35812,0,0,1-.11331.00143A.27636.27636,0,0,1,1.516,1.2896L1.47788,1.285a.36984.36984,0,0,0-.1708-.0389c-.01451-.00007-.02907.00039-.04366.00119-.04378.0024-.08786.00783-.13181.011a.04042.04042,0,0,0-.02431.04034.0662.0662,0,0,0,.01934.05294c.00815.00407.01629,0,.02309.00039Z"></path><path d="M2.99189,4.14041a.16341.16341,0,0,0-.09969-.02022.30407.30407,0,0,0-.05011.00842.208.208,0,0,0-.039.00717c-.01255.00348-.02474.00784-.03677.01244l-.0239.00938a.39086.39086,0,0,1-.048.01622.0894.0894,0,0,1-.03062.00021.39248.39248,0,0,0-.09669-.01625.09805.09805,0,0,0-.03918.00273.45861.45861,0,0,0-.08578.02294l-.04185.01569-.03252.01148c-.02356.0038-.05206.02009-.07649.01195a1.23273,1.23273,0,0,0-.24758-.064.24319.24319,0,0,0-.04123.00162.21878.21878,0,0,0-.04105.00941.15612.15612,0,0,1,.03767-.002c.10486.03869.17409.12828.27589.17307.03258.01222.0733.00407.10609.01652l.04362.0023.04355.00307c.01358-.00084.02728-.00246.04093-.00463l.02864-.0026.02816-.005c.02406-.00194.04787-.00512.0715-.00922l.03525-.00593a.57047.57047,0,0,0,.35859-.09732l.03759-.01769A.6856.6856,0,0,0,3.175,4.15743a.82992.82992,0,0,1-.15787-.00595Z"></path><path d="M1.35379,1.10424a1.42651,1.42651,0,0,1,.25979.05416l.03781.00837.03516.00451c.058.00946.11381.02778.17053.04185a.273.273,0,0,1,.07827.0353.112.112,0,0,0,.05366.01871.19242.19242,0,0,1,.06258.01585A.19545.19545,0,0,0,2.0997,1.297a.11133.11133,0,0,1,.05786.02529c.018.01464.03561.02966.05325.04462a.21836.21836,0,0,0,.08668.04594c.02531.0067.04958.01692.07422.02575.03349.012.06644.02541.10037.036.04535.01409.0913.02632.13711.03871a.25177.25177,0,0,0,.04865.00977A.77369.77369,0,0,0,2.902,1.503c.049-.01263.099-.02269.1484-.03385a.10333.10333,0,0,1,.02036-.004c.0657-.00121.12784-.01884.19213-.026a.841.841,0,0,1,.11077-.006c.01858.00037.03722.00206.05573.00178a.10524.10524,0,0,0,.03383-.00483c.01585-.00582.03177-.01169.04678-.01889a.32427.32427,0,0,1,.11-.0582l.04622-.01668c.05842-.02537.14394-.02537.1643-.08645.00815-.02443-.01222-.06516-.02851-.06516-.02851-.00407-.06108.02851-.09787.03435l-.03655.0073c-.0736.01215-.15353.011-.22506.02276l-.02986.00541-.02865.00787-.03278.00943-.06584.01832a.12209.12209,0,0,1-.03344.00719.19875.19875,0,0,0-.0972.02871.53253.53253,0,0,1-.1546.05193c-.01834.00329-.03562.00883-.05336.01354a.49077.49077,0,0,1-.11541.02129.48561.48561,0,0,1-.10552.00028.08454.08454,0,0,0-.02783.00253.1926.1926,0,0,1-.14655-.03921.76106.76106,0,0,0-.18749-.09669c-.03787-.01407-.0746-.03121-.11087-.04877a.1947.1947,0,0,0-.10971-.02675c-.033-.00623-.06616-.01211-.09911-.019a.05115.05115,0,0,1-.01863-.01.1947.1947,0,0,1-.06264-.06291.16479.16479,0,0,0-.03351-.04269l-.0211-.01852a.6884.6884,0,0,0-.50366-.03362.26775.26775,0,0,0-.04082.01532.23483.23483,0,0,0-.07047.05006c-.00407.00407,0,.01222.00407.02036.01222-.01222.02443-.00407.042-.00207Z"></path><path d="M3.92957,3.51011c-.02972.03241-.07451.04462-.10665.07226l-.024.01251a.36942.36942,0,0,1-.04916.02086,1.1733,1.1733,0,0,1-.12542.01962l-.0252.00475a1.106,1.106,0,0,1-.12335.03348.1263.1263,0,0,1-.061.00868c-.02323-.0003-.04654-.00047-.06972.00084a.647.647,0,0,0-.07609.00742.28281.28281,0,0,1-.1179-.00265.31611.31611,0,0,0-.06245-.00753c-.04675-.002-.09358-.00387-.14035-.0071a.07812.07812,0,0,1-.03259-.01046.23525.23525,0,0,0-.08992-.03536.11892.11892,0,0,1-.03912-.01436.36477.36477,0,0,0-.1068-.03322.30822.30822,0,0,1-.08143-.02192.10137.10137,0,0,0-.06265-.00522.27534.27534,0,0,0-.04123.0093c-.07812.02664-.16328.02639-.243.04778-.04314.00027-.08468.01323-.12824.01175a.30147.30147,0,0,0-.0641.00629.59114.59114,0,0,1-.07863.00723.21636.21636,0,0,1-.091-.01848A.07911.07911,0,0,1,1.861,3.59745a.23728.23728,0,0,0-.18253-.08018.24366.24366,0,0,1-.03545-.007.14463.14463,0,0,0-.03561-.00437.33555.33555,0,0,1-.15449-.03182.123.123,0,0,1-.02379-.015.11245.11245,0,0,0-.01666-.01267.43043.43043,0,0,1-.06222-.03465L1.32112,3.392c-.02016-.01224-.04248-.02529-.06588-.0373l-.02465-.01162A.37338.37338,0,0,0,.9603,3.31037a.12719.12719,0,0,0-.03223.023.05129.05129,0,0,0-.01713.04454c.008.01393-.00012.04243.008.04243a.84962.84962,0,0,1,.28716.074c.01278.00424.02572.008.03878.01111a.32923.32923,0,0,0,.0396.00694.16366.16366,0,0,0,.04887-.00328.16015.16015,0,0,1,.036-.00475.07333.07333,0,0,1,.03517.0062.14509.14509,0,0,0,.08326.02.103.103,0,0,1,.06636.0235c.02593.01963.05159.03964.07565.061a.40982.40982,0,0,0,.07554.05044.11073.11073,0,0,0,.026.01146c.03736.00926.07275.02356.10941.03384.03429.00962.07065.01336.10495.024a.10717.10717,0,0,0,.02853.00339c.0433.00113.08657.00248.12977.00249.04554,0,.091-.00124.13645-.00221a.60241.60241,0,0,0,.10481-.01811c.02318-.00461.04591-.01111.06923-.01474a.15708.15708,0,0,1,.097.01233l.02536.01177a.302.302,0,0,0,.0949.0254.52236.52236,0,0,0,.13378.0043.10911.10911,0,0,1,.04222.00129c.0388.00981.07974.00651.11813.01837a.1548.1548,0,0,0,.0418.00419c.02816.00055.05632.00013.08445,0a.32844.32844,0,0,1,.10418.00994A.1774.1774,0,0,0,3.191,3.7979a.16048.16048,0,0,0,.08826-.01214.11007.11007,0,0,1,.11667.0144l.01585.01237a.25982.25982,0,0,0,.04575.01079.27506.27506,0,0,0,.04816.00266c.01212-.00082.02424-.002.03632-.00381a2.7418,2.7418,0,0,1,.26015-.10047.07512.07512,0,0,0,.03764-.01857.33564.33564,0,0,0,.03136-.03225c.04909-.04284.08574-.09985.13461-.14872.02036-.02443.04072-.04072.06108-.06516.00407-.00814.01222-.01629.00814-.02851a.38548.38548,0,0,1-.1277.06972Z"></path><path d="M1.77566.78609,1.816.78188c.068.0078.22686-.10216.2065-.00849-.01629.07737-.12217.08144-.19482.0815L1.78533.85432A.26028.26028,0,0,0,1.599.9037a1.009,1.009,0,0,1,.38158.10648l.02372.016.02321.01615a.1465.1465,0,0,0,.06552.02671.63733.63733,0,0,0,.09981.013.24239.24239,0,0,1,.1102.02822,1.31363,1.31363,0,0,0,.1257.05044,1.25566,1.25566,0,0,1,.17759.08729.1021.1021,0,0,1,.02138.01744.128.128,0,0,0,.09735.03383c.04959-.00144.099.00069.1484.00286a.37745.37745,0,0,0,.11775-.01172c.031-.00852.06262-.01545.09366-.02378A.19329.19329,0,0,0,3.148,1.242a.23627.23627,0,0,1,.08745-.03528l.03679-.00885.03613-.01015a.83874.83874,0,0,1,.08013-.02537L3.429,1.15289a.22693.22693,0,0,1,.041-.00607c.016-.00068.03289-.00064.05127-.00029.07318-.00664.16277.03.21571-.027.01629-.02036-.01629-.04479-.02549-.07423a.10157.10157,0,0,0-.02594-.028A.37787.37787,0,0,0,3.41419.994c-.0135.00322-.02694.007-.04031.01114-.04009.01244-.0795.02821-.11782.04245l-.038.01683-.02983.01413a.29126.29126,0,0,1-.02976.00669.36914.36914,0,0,0-.11441.04107.3769.3769,0,0,1-.08611.03781.26777.26777,0,0,1-.11074.00695c-.03042-.004-.06067-.0098-.09093-.01532A.134.134,0,0,1,2.729,1.148a1.44,1.44,0,0,1-.19287-.08777A1.03953,1.03953,0,0,0,2.36052.98372C2.34732.97878,2.33233.9782,2.31861.9742L2.29131.96511,2.26564.95354A.08988.08988,0,0,1,2.23023.81.05483.05483,0,0,1,2.26688.78967.82882.82882,0,0,1,2.35022.78942c.00912.00019.01822.00034.02737.00026A.43023.43023,0,0,0,2.53564.753C2.54786.751,2.55906.749,2.57026.74793a.13266.13266,0,0,1,.03462.001.60342.60342,0,0,0,.23835.03783L2.88354.78391A.78576.78576,0,0,0,2.99109.76264l.036-.00934L3.0639.74467A1.05786,1.05786,0,0,1,3.17906.72452C3.14648.71637,3.10983.71637,3.07878.71158L3.04649.70986A.715.715,0,0,0,2.91669.7172L2.88591.72238a.21792.21792,0,0,1-.06114.00214C2.80849.72044,2.7922.72452,2.78.71637A.39494.39494,0,0,0,2.60844.63973C2.59413.63859,2.58.63809,2.56581.6378c-.071-.00148-.14234.00194-.2138.00267Q2.33132.64,2.31077.6403A1.44709,1.44709,0,0,0,2.028.6757L1.99016.68626a1.633,1.633,0,0,0-.18446.07881L1.76834.77253q-.03751.007-.07565.01307c.01222,0,.02443.00815.03512.0028C1.74161.78847,1.75782.78769,1.77566.78609Z"></path><path d="M3.307.81611a.50194.50194,0,0,0-.28178.02126A.21223.21223,0,0,1,2.9887.84356.4045.4045,0,0,1,2.94493.8499a.28451.28451,0,0,1-.04449.00046l-.0267.003C2.856.85574,2.83835.8589,2.8207.863,2.77184.87519,2.7189.85483,2.67117.86963L2.64544.87839a.11985.11985,0,0,1-.05279.009A.61634.61634,0,0,0,2.47049.87926.01221.01221,0,0,0,2.4673.90083l.027.01325c.02695.01332.05378.02679.0808.03984a.24794.24794,0,0,0,.08182.0233c.05658.006.113.01325.164.01933.02907.0012.05262.00246.07615.003A.2584.2584,0,0,0,2.93923.99876l.043-.00626L3.02535.986,3.06167.97936A1.20113,1.20113,0,0,1,3.23039.95158l.043-.00432c.06393-.00576.12549-.01238.189-.02149L3.501.92,3.47327.90167C3.44574.88336,3.41808.8651,3.3899.847L3.36395.83327A.177.177,0,0,0,3.33578.8234.17687.17687,0,0,1,3.307.81611Z"></path><path d="M.80957,2.08116a.5567.5567,0,0,1,.16725-.02928c.01472-.0006.02907-.0009.04345-.00083a.876.876,0,0,1,.12717.00948l.033.00252a.58936.58936,0,0,0,.066.00139L1.283,2.06251a.13347.13347,0,0,1,.02911-.00136.4517.4517,0,0,0,.13059-.00742A.43712.43712,0,0,1,1.52191,2.048a.06664.06664,0,0,0,.034-.00814c.04676-.02559.1-.04109.14383-.07083a.371.371,0,0,0,.08552-.05228c-.04325-.00847-.07646-.01444-.11009-.01854a.38778.38778,0,0,0-.12981.00739.1542.1542,0,0,1-.09256-.00919c-.02489-.01-.05073-.01658-.076-.025a.28782.28782,0,0,0-.08648-.01389c-.0196-.00037-.03923-.00168-.05881-.0016a.29444.29444,0,0,1-.0478-.00331A.18749.18749,0,0,1,1.138,1.83954a.83688.83688,0,0,0-.08259-.01979L1.0266,1.815C.919,1.80367.76014,1.75073.68684,1.86068a.06932.06932,0,0,0-.00407.02851.02779.02779,0,0,0,.02036.01222.97335.97335,0,0,1,.24763-.01908l.04054.00151.03618.00156.04064.00328c.03639.00292.07272.0076.10879.01267l.02558.0031.02521.0055a.47546.47546,0,0,0,.10843.01709.06955.06955,0,0,1,.02688.00963l.00719.01044-.00674.01068L1.351,1.96339c-.00957.00132-.01977.00026-.02906.00227a1.1026,1.1026,0,0,1-.11933.01949l-.0303.00263a.33655.33655,0,0,0-.07014.01136.07761.07761,0,0,1-.03054-.002.07762.07762,0,0,0-.03054-.002.34453.34453,0,0,1-.11743.00535L.87989,1.99685c-.05052.00229-.10753-.014-.15326.01278a.08938.08938,0,0,0-.026.01992.0942.0942,0,0,0-.018.03062A.08062.08062,0,0,0,.7011,2.0989a.04281.04281,0,0,0,.04276.01425.11167.11167,0,0,0,.024-.00908.08954.08954,0,0,0,.02107-.01477Z"></path><path d="M4.28387,3.01855a.09122.09122,0,0,0-.07047-.03773L4.17682,2.974a1.53567,1.53567,0,0,1-.28666-.06175A.15156.15156,0,0,1,3.846,2.90579c-.01431-.00388-.02842-.00862-.04293-.01167-.0224-.00471-.045-.00921-.06775-.01193a.98645.98645,0,0,1-.33-.09463.45384.45384,0,0,0-.05645-.02565.9558.9558,0,0,1-.191-.09469.37225.37225,0,0,1-.12981-.10645.02609.02609,0,0,0-.02481-.00942l-.007.00062c-.05788.00823-.11222.02789-.169.0401a.05409.05409,0,0,0-.02216.01424.0966.0966,0,0,1-.03448.02061c-.04164.0139-.08325.02774-.1262.03885a.24575.24575,0,0,1-.10523.00412c-.01166-.002-.023-.00619-.03472-.00745a.13137.13137,0,0,0-.10954.03356.22861.22861,0,0,0-.043.04977.16182.16182,0,0,1-.05963.061.17233.17233,0,0,0-.02093.017.13179.13179,0,0,1-.06847.03144.13019.13019,0,0,0-.05222.01891.30323.30323,0,0,1-.08455.03315.4946.4946,0,0,0-.06784.02.87082.87082,0,0,1-.13656.03881c-.03026.00667-.06048.01372-.0903.02185-.062.01692-.12363.03534-.186.05179a.181.181,0,0,0-.05162.0223c-.0078.005-.01417.01167-.02207.01649-.05654.03452-.04061.039-.02952.08615a.06746.06746,0,0,0,.02811.037.13575.13575,0,0,0,.06553.02726.35663.35663,0,0,0,.06525.005.86953.86953,0,0,1,.24263.03625c.05381.01156.10587.02949.15889.04371a.391.391,0,0,0,.25251-.00735.612.612,0,0,1,.08133-.023c.0228-.00554.04653-.00817.06924-.01386a.79288.79288,0,0,1,.1755-.02091,1.05539,1.05539,0,0,1,.22463.02372,1.87716,1.87716,0,0,0,.19391.03194,1.2442,1.2442,0,0,0,.13057.00045.786.786,0,0,0,.14824-.00907c.01608-.00189.03237-.00259.04859-.00329a1.13563,1.13563,0,0,0,.197-.03284A.5487.5487,0,0,0,3.6265,3.234c.01715-.0059.034-.01244.05137-.01782s.035-.00991.05264-.01438a.20918.20918,0,0,0,.07288-.03348.25831.25831,0,0,1,.057-.03081l.03071-.01061a.34871.34871,0,0,1,.11855-.00962l.02968.00306c.056.00275.09675.05162.1497.06384a.1128.1128,0,0,0,.12624-.06923c.00814-.03665-.02851-.06108-.02905-.09378Zm-.43815.00712-.00357.00456c-.0084.00291-.01748.00453-.0254.0082s-.01875.00781-.02118.01411c-.01745.04512-.0596.053-.104.05745a.34379.34379,0,0,1-.05524.00136.51553.51553,0,0,0-.11027.00742.41471.41471,0,0,0-.09231.02521c-.04013.01628-.08443.02157-.12382.03953a.06049.06049,0,0,1-.02717.00329.35421.35421,0,0,1-.04146-.00569.13586.13586,0,0,0-.069.00246.08186.08186,0,0,1-.04823.00093.26986.26986,0,0,0-.06254-.00764.19486.19486,0,0,1-.028-.00219c-.05781-.01016-.11657-.01272-.17489-.01946a.337.337,0,0,0-.09129-.00081.48178.48178,0,0,1-.09149.00379c-.02129-.00064-.04278.00022-.06385-.00224a.13926.13926,0,0,0-.0822.01257.10769.10769,0,0,1-.03318.00968.92677.92677,0,0,0-.124.027.418.418,0,0,1-.05567.01,1.00977,1.00977,0,0,0-.12652.01866.16158.16158,0,0,1-.07829-.00036.246.246,0,0,0-.09985-.00126.285.285,0,0,1-.13547-.00888.24816.24816,0,0,1-.08144-.0415.05739.05739,0,0,1-.01518-.02153.032.032,0,0,1,.01629-.03882,1.03,1.03,0,0,1,.1843-.05245.28652.28652,0,0,0,.06871-.0173,1.01309,1.01309,0,0,1,.14791-.047.32608.32608,0,0,0,.11745-.0574c.02925-.02111.05571-.04525.08312-.06828a.214.214,0,0,0,.04877-.05352.16317.16317,0,0,1,.02655-.02918.09809.09809,0,0,1,.08345-.04023c.02571-.00265.052-.0017.07793-.00238l.00007.00155a.16365.16365,0,0,1,.02129.00053.21065.21065,0,0,0,.134-.02724.29512.29512,0,0,1,.15474-.033A.0983.0983,0,0,1,3.008,2.7194a.32228.32228,0,0,0,.08861.05223c.02138.009.04224.019.06389.02723a.53076.53076,0,0,1,.10915.05787.17566.17566,0,0,0,.04215.02237.85023.85023,0,0,1,.12472.05706c.03029.01579.06246.02857.094.04229a.07226.07226,0,0,0,.02.00527c.04132.00492.08256.01164.12393.01355.05546.00256.10965.01224.16418.01962C3.84441,3.01768,3.847,3.02072,3.84572,3.02567Z"></path><path d="M2.11827,3.10425l.00128.00362c.00554.00022.007-.00151.00374-.00462Z"></path><path d="M.73615,2.904a.18989.18989,0,0,1,.09044-.04181L.86232,2.855c.024-.00418.04847-.00731.07289-.01064l.03667-.00723.0369-.00758.02775-.00566c.03664-.00716.07372-.01293.11051-.01931a.28263.28263,0,0,1,.044-.00183c.02207-.00029.04416-.00046.06622-.0001a.29044.29044,0,0,0,.09334-.01374.80581.80581,0,0,0,.13671-.04265.56381.56381,0,0,1,.16329-.02694.12981.12981,0,0,0,.02885-.00214q.09259-.01467.18475-.0299a.03252.03252,0,0,0,.02694-.01888.06676.06676,0,0,1,.04572-.03726l.02-.00684a.17059.17059,0,0,0,.12049-.10782.10356.10356,0,0,1,.02994-.04163.35716.35716,0,0,0,.0324-.03372.25845.25845,0,0,1,.14068-.00568.20956.20956,0,0,0,.085-.00007.78559.78559,0,0,0,.13622-.03329.38392.38392,0,0,1,.08922-.01821,1.28348,1.28348,0,0,0,.19386-.03176.62394.62394,0,0,0,.10448-.0348.56876.56876,0,0,1,.092-.029.09971.09971,0,0,1,.03449-.00016.21283.21283,0,0,0,.08982-.00683l.0067-.00169c.07735-.01608.07832-.015.13557.03807.04123.0382.08719.07152.12757.11025a.15055.15055,0,0,0,.07876.03961.54211.54211,0,0,1,.15415.05871.38591.38591,0,0,1,.06419.03837.2493.2493,0,0,0,.12686.04751.88485.88485,0,0,1,.12018.02913l.00656.00193a.26308.26308,0,0,0,.03387.01605c.01173.00458.02372.00852.036.01218a.8443.8443,0,0,0,.08723.0263l.044.00979.03493.00667.03483.00416c.045-.00251.09389.0097.138.0097l-.0053-.02532c-.00649-.02558-.01642-.05-.047-.05612a.37013.37013,0,0,1-.14474-.0271.16856.16856,0,0,1-.0276-.0161.28786.28786,0,0,1-.03263-.0182.22647.22647,0,0,1-.05584-.05081.10111.10111,0,0,0-.02523-.01013c-.01769-.00449-.03553-.00872-.05353-.01194a.3336.3336,0,0,1-.17619-.08181.14271.14271,0,0,0-.09973-.0383.20788.20788,0,0,1-.1324-.0319.12179.12179,0,0,1-.03043-.01546.26356.26356,0,0,0-.11287-.048.14747.14747,0,0,1-.09282-.05307.04684.04684,0,0,0-.0278-.01864.06605.06605,0,0,1-.04214-.03183.13842.13842,0,0,0-.08613-.05164.101.101,0,0,0-.05541.001.5093.5093,0,0,0-.09817.03119.29812.29812,0,0,1-.08612.02417c-.0528.00889-.10608.0173-.15753.03078a.7194.7194,0,0,0-.11751.04053.3695.3695,0,0,1-.11194.03644.10684.10684,0,0,0-.027.007.3153.3153,0,0,1-.11623.02494.10367.10367,0,0,0-.028.00426.28.28,0,0,1-.12055.00161.37963.37963,0,0,1-.04925-.0101.25788.25788,0,0,0-.11319-.00306.09438.09438,0,0,0-.06206.03834L1.99335,2.38c-.01023.0498-.05353.07831-.08987.11119A.10492.10492,0,0,1,1.846,2.5155a.536.536,0,0,0-.0893.0242c-.03175.0097-.063.02041-.0959.02774a.22869.22869,0,0,0-.10679.05036.29132.29132,0,0,1-.13551.05721.45208.45208,0,0,0-.06882.02.25688.25688,0,0,1-.1287.016c-.03889-.00472-.078-.00715-.117-.01285a.6344.6344,0,0,0-.07971-.00618Q1.01092,2.69164.99756,2.6918l-.02774.00083L.942,2.69345a.28293.28293,0,0,1-.036.00461L.8649,2.69864c-.07625-.00315-.19434.005-.19434.1068a.0829.0829,0,0,0,.0053.02857.89766.89766,0,0,0,.05051.07771Z"></path><path d="M3.82066,3.77934a.32907.32907,0,0,0-.23892.08778.33406.33406,0,0,1-.03588.01255A.29453.29453,0,0,1,3.51,3.88253Q3.492,3.883,3.474,3.882L3.42411,3.8757,3.377,3.86992a.15921.15921,0,0,1-.02669-.006.12544.12544,0,0,1-.02584-.01164.0939.0939,0,0,0-.04368-.00964.09594.09594,0,0,0-.04317.012.14668.14668,0,0,1-.0805.0153.75707.75707,0,0,1-.10463-.0082.22123.22123,0,0,0-.09072.0022.25909.25909,0,0,1-.12493-.00911.05745.05745,0,0,1-.019-.00826A.09554.09554,0,0,0,2.744,3.83374c-.02558.00359-.05122.00735-.077.00934a.16749.16749,0,0,1-.06962-.00929A.71.71,0,0,1,2.473,3.78646a.08328.08328,0,0,0-.048-.01,1.46061,1.46061,0,0,0-.21381.00966.27725.27725,0,0,1-.0357.00293c-.067.00534-.13426-.00118-.20156-.00057a.22748.22748,0,0,1-.03539-.00568.0578.0578,0,0,0-.0211-.00205.16523.16523,0,0,1-.08525-.00682.46857.46857,0,0,0-.08554-.014.13137.13137,0,0,1-.02831-.00523.34729.34729,0,0,1-.13821-.08227L1.56429,3.659a.09544.09544,0,0,0-.07745-.02829,1.02875,1.02875,0,0,1-.11686-.003.37031.37031,0,0,1-.0471-.00565.25571.25571,0,0,1-.04717-.01327l-.03483-.01695A.30972.30972,0,0,0,.99633,3.5303a1.14257,1.14257,0,0,0,.1181.12624A.30838.30838,0,0,1,1.1526,3.682c.03945.05343.10541.03123.15223.03884a.06379.06379,0,0,1,.02531.0091.88607.88607,0,0,0,.32575.10859l.04253.00632.0426.0049.03381.00587a.62884.62884,0,0,0,.10271.00977.05015.05015,0,0,1,.01439.001.2071.2071,0,0,0,.09944.00339A.057.057,0,0,1,2.01293,3.87c.04694.01029.09562.00841.1425.0172a.24781.24781,0,0,0,.0996.00068.57081.57081,0,0,1,.14944-.00336.09863.09863,0,0,1,.02732.00665c.02437.0085.04838.01778.07265.02642a.46934.46934,0,0,0,.13121.02517.6077.6077,0,0,1,.08471.00541.10944.10944,0,0,0,.0352.00106,1.03227,1.03227,0,0,1,.12-.00235.23849.23849,0,0,1,.07672.00772.06421.06421,0,0,0,.02059.00385.80333.80333,0,0,1,.13935.0142.30909.30909,0,0,0,.03833.00258l.03862.00076a.09183.09183,0,0,1,.03391.01062.08459.08459,0,0,1,.02887.02567c-.01608.00946-.03015.00163-.04443-.00658a.05325.05325,0,0,0-.04514-.01138.3198.3198,0,0,0-.03289.0011L3.09643,3.999l-.01375.00248a.14594.14594,0,0,1-.0488.00129.46743.46743,0,0,0-.049-.00335.89137.89137,0,0,1-.09791.00481.54843.54843,0,0,0-.09839.00258.31976.31976,0,0,0-.04148.007.22994.22994,0,0,1-.0912.002.55651.55651,0,0,0-.07026-.00761.30071.30071,0,0,1-.15294-.04625A.06118.06118,0,0,0,2.39276,3.951c-.02138.00121-.04287.0013-.06422.00293a.25439.25439,0,0,0-.04212.00633l-.03271.00816-.03269.0083a.39269.39269,0,0,1-.04166.015A.5601.5601,0,0,1,2.115,4.0055a.60184.60184,0,0,1-.06683.0065.61981.61981,0,0,1-.136-.00933l-.032-.00609L1.8371,3.99124a1.14323,1.14323,0,0,0-.1298-.00929.10846.10846,0,0,1-.03244-.005.18249.18249,0,0,1-.03034-.01271c-.06179-.05932-.1473-.039-.22468-.06339a.45538.45538,0,0,1-.08552-.06923.10232.10232,0,0,0-.057-.02443.08519.08519,0,0,0,.01629.02443c.05294.04887.12624.057.17918.10588.04072.04072.04887.11.09789.14262a.19044.19044,0,0,0,.03242.01212.39421.39421,0,0,0,.158-.02069c.01288-.003.02574-.0056.03861-.00727a.11419.11419,0,0,1,.03959-.00057c.0284.00734.0568.01632.08526.02563l.0286.00932c.03791.00174.07545.00442.1128.00747l.0373.00315c.04958.00331.09845.01146.14886.01252l.03734.00247.03749.00195.03577-.00317.036-.00487L2.43926,4.111c.027-.00482.05409-.00949.08119-.0133l.029-.0039a.56349.56349,0,0,1,.07295-.004l.03673.00208c.02717.00042.05567.00856.08-.008a.23884.23884,0,0,1,.02606-.00971A.19307.19307,0,0,1,2.84252,4.062l.02652.00309a.61878.61878,0,0,1,.17971.03533.19621.19621,0,0,0,.04887,0c.03665.00815.06923.02036.10219.031l.03623.0091a.25423.25423,0,0,0,.1772-.01831c.01229-.00539.02395-.01146.03581-.01775a.60884.60884,0,0,1,.17033-.08308c.01131-.00589.02189-.01206.03207-.01867a.316.316,0,0,1-.03184.01524.776.776,0,0,1-.23841.04629A.1832.1832,0,0,1,3.346,4.05562l.03718-.01051.03874-.006L3.46106,4.034a.47886.47886,0,0,0,.15245-.03768l.03326-.01587A.664.664,0,0,0,3.711,3.94207l.02872-.01787c.0288-.01792.05781-.03605.08683-.05591a.08614.08614,0,0,0,.033-.06327.15269.15269,0,0,0,.00367-.03853c-.00815.01629-.02443-.00407-.03238.0073C3.8254,3.77448,3.82122,3.77584,3.82066,3.77934Z"></path><path d="M.81784,3.096a.21376.21376,0,0,1,.16149-.07364A.33837.33837,0,0,1,1.01668,3.022c.01585,0,.0316-.00008.04726-.00071l.04154.0009c.01382.00015.02761.00008.04133-.00035l.03543-.00058a.10517.10517,0,0,0,.05547-.0127c.0089-.00538.02342-.00315.03388-.00725.00838-.00329.01363-.01219.02177-.01638a.53815.53815,0,0,1,.06408-.02982.30516.30516,0,0,0,.064-.029A.0961.0961,0,0,1,1.47658,2.913l.01084.00574-.0012.00591A.12633.12633,0,0,1,1.429,2.962a.10194.10194,0,0,0-.05239.03228c-.009.00991-.01814.01984-.02817.029a.13344.13344,0,0,1-.08056.03926.08875.08875,0,0,0-.02861.00415.16228.16228,0,0,1-.04529.012c-.01552.00228-.03122.00378-.047.00736a.22006.22006,0,0,1-.06461.00581l-.03354-.00266-.03466-.0075C.976,3.07421.93525,3.062.90267,3.0905a.05512.05512,0,0,0-.02119.03586.10133.10133,0,0,0,.00385.04594.07619.07619,0,0,0,.02042.03959c.04986.03743.11094-.00329.16352-.007a.12882.12882,0,0,1,.03983-.00141.20365.20365,0,0,1,.03924.00325.1936.1936,0,0,1,.04013.01215c.0131.00317.02618.00628.03943.00856a.13011.13011,0,0,1,.0577.02682c.058.04344.12062.08155.1808.12224a.16539.16539,0,0,0,.03176.01605.5868.5868,0,0,0,.11766.035c.02377.004.04691.01111.07066.015s.048.00622.07206.00823A.34739.34739,0,0,1,1.869,3.481c.0152.00662.0313.01168.04606.01894a.2164.2164,0,0,0,.09736.02051c.07451.00014.1489.00178.22314.0022a.3595.3595,0,0,0,.04255-.00407c.01182-.00135.02351-.0041.03535-.00454a1.20531,1.20531,0,0,0,.13394-.01743q.0701-.01048.14042-.0189a.04582.04582,0,0,1,.02716.005.3298.3298,0,0,0,.09911.0338c.04321.01084.086.02333.12817.03681a.4065.4065,0,0,0,.13852.01746.54957.54957,0,0,1,.07018.00126c.04191.004.0841.00556.12564.0105a.77508.77508,0,0,0,.18083-.00529.75377.75377,0,0,1,.08305-.00657.19239.19239,0,0,0,.06723-.01287l.03158-.01279a.3376.3376,0,0,1,.04478-.01579.28284.28284,0,0,1,.04822-.009l.03923-.00106a.21722.21722,0,0,0,.11022-.02151l.03435-.01694a1.17764,1.17764,0,0,1,.275-.13083l.02733-.01386a.15837.15837,0,0,0,.07873-.09085c.00815-.01222.02443-.00814.03665-.02036a.0935.0935,0,0,1-.057.01629c-.057-.00815-.09366-.06516-.154-.05807a.2068.2068,0,0,0-.0358.00916.34255.34255,0,0,0-.0993.05706.496.496,0,0,1-.18816.07683l-.02488.00595c-.02466.00683-.04879.01578-.07373.02195a.25565.25565,0,0,0-.076.02851.10272.10272,0,0,1-.0314.01258.96219.96219,0,0,0-.15628.05044.0556.0556,0,0,1-.01989.00527c-.03524.00019-.06857.01114-.10307.0139a.9594.9594,0,0,1-.11213.00005.53517.53517,0,0,1-.15752-.02953c-.03946-.01379-.081-.02284-.12157-.03418-.03609-.01009-.07221-.02023-.10823-.03074A.267.267,0,0,0,2.645,3.35923l-.064-.00181a.14768.14768,0,0,0-.04906.00535.20039.20039,0,0,1-.03418.00824.82824.82824,0,0,0-.21622.0612.10555.10555,0,0,1-.06238.00522c-.03037-.00564-.06183-.00628-.09254-.01085a1.03253,1.03253,0,0,1-.18053-.045C1.89853,3.3654,1.84855,3.357,1.8,3.34373a.38168.38168,0,0,0-.11546-.00834c-.0266.00107-.05331.00136-.08.0011a.19342.19342,0,0,1-.07072-.015.09942.09942,0,0,1-.02495-.01327.47957.47957,0,0,1-.10962-.11285.07293.07293,0,0,1-.0069-.07415c.0082-.0178.01567-.03589.02246-.05414A.04874.04874,0,0,1,1.44263,3.039a.32555.32555,0,0,0,.07745-.04673.07683.07683,0,0,1,.0311-.01538c.04246-.00914.08223-.02463.12351-.03611a1.37724,1.37724,0,0,1,.147-.03294,1.093,1.093,0,0,0,.15882-.04043.204.204,0,0,1,.06226-.014A.18028.18028,0,0,0,2.147,2.81672c.01863-.013.03489-.029.05467-.04025a.16736.16736,0,0,0,.06349-.06629.49048.49048,0,0,1,.03237-.04867.099.099,0,0,1,.02316-.02346.20011.20011,0,0,1,.17377-.05539c.02138-.00011.04289-.00081.06411.00116a.45254.45254,0,0,0,.18582-.031c.01753-.00576.03369-.01457.051-.021a.92962.92962,0,0,1,.2293-.05837.157.157,0,0,1,.08872.05808.16914.16914,0,0,0,.07023.05243.75791.75791,0,0,1,.14234.08214.3298.3298,0,0,0,.09053.04816.52218.52218,0,0,1,.06287.02807.57528.57528,0,0,0,.19729.05886c.02754.00282.05511.00583.08236.01035A1.30719,1.30719,0,0,1,3.898,2.841l.03392.01031.03394.012c.11729.01133.26389.15386.35876.02793a.11161.11161,0,0,0,.01355-.03137.06027.06027,0,0,0-.01069-.05854c-.057-.05294-.1466-.01629-.221-.03894l-.03993-.00705L4.02642,2.749l-.04061-.00821L3.94522,2.7319a.2913.2913,0,0,1-.04356-.00871.18753.18753,0,0,1-.04121-.01711A.19071.19071,0,0,0,3.802,2.68724c-.0382-.00757-.07565-.01924-.11412-.0254A.21114.21114,0,0,1,3.60023,2.626c-.013-.0089-.02785-.01569-.04063-.02487A.46041.46041,0,0,0,3.36189,2.525l-.02062-.00355a.08582.08582,0,0,1-.05069-.03236,1.10683,1.10683,0,0,0-.08875-.11482.18441.18441,0,0,1-.0165-.03477.03746.03746,0,0,0-.03308-.02086.45413.45413,0,0,0-.25322.05639.48161.48161,0,0,1-.11259.04961.50085.50085,0,0,1-.10186.02206.91592.91592,0,0,0-.20585.042.25222.25222,0,0,1-.06038.01688A.71663.71663,0,0,1,2.2765,2.515c-.019-.00212-.03816-.00332-.05729-.00449a.32276.32276,0,0,0-.03585-.00075.0453.0453,0,0,0-.04437.02657.21422.21422,0,0,1-.0531.07391.16631.16631,0,0,1-.08071.04987.05561.05561,0,0,0-.03369.02191.08143.08143,0,0,1-.03833.02735c-.01519.006-.02937.01383-.04417.02058a.09744.09744,0,0,1-.026.01041.77491.77491,0,0,0-.102.03012.49428.49428,0,0,1-.10556.02091.94063.94063,0,0,0-.11351.01957.18956.18956,0,0,0-.04015.01415A.61839.61839,0,0,1,1.38506,2.86a1.60672,1.60672,0,0,1-.23817.03085l-.03424.00209-.03413.0032-.04018.006-.028.00456c-.01447.0011-.02879.003-.043.0055-.01441.00249-.02879.00562-.04373.00936l-.0348.01-.03429.01163c-.0455.01707-.10251.02929-.1188.07-.01629.03665.03665.0733.07991.08552Z"></path><path d="M4.14811,1.85621a.25689.25689,0,0,0,.00565.02685.057.057,0,0,0,.01486.02648.07668.07668,0,0,1-.00752-.0253A.11277.11277,0,0,1,4.17676,1.82c-.00814.00407-.01222.01222-.02177.017A.043.043,0,0,0,4.14811,1.85621Z"></path><path d="M.75948,2.37917c.02917.00683.06175.00275.09047.00915.01558.00151.03128.00258.04686.00257A.25469.25469,0,0,0,.943,2.387c.01613-.00224.03211-.00517.04789-.009.01411-.00332.02828-.00657.04264-.00894a.80076.80076,0,0,0,.15425-.03969.65509.65509,0,0,1,.24191-.04081c.04658.0005.09218-.00483.13826-.00619a.07508.07508,0,0,0,.06064-.03007,1.02174,1.02174,0,0,1,.10553-.11162.42956.42956,0,0,1,.16722-.09351A.743.743,0,0,1,2.01145,2.02c.04039-.00392.08055-.0091.12087-.01293a.16657.16657,0,0,1,.02861.00231l.086.0071a.70444.70444,0,0,0,.13473-.01064.11438.11438,0,0,0,.0331-.01063.72958.72958,0,0,1,.17629-.04275L2.66739,1.94c.014-.00238.02136-.009.018-.01472a.02741.02741,0,0,0-.02331-.012c-.02594-.00218-.052-.00387-.078-.00472a.58633.58633,0,0,1-.10593-.01295.41383.41383,0,0,1-.07378-.02508.27584.27584,0,0,0-.0897-.02193.56925.56925,0,0,0-.09921-.00591.43241.43241,0,0,0-.1-.00969.26874.26874,0,0,1-.08417-.01753c-.03326-.01307-.068-.02315-.10217-.03431a.109.109,0,0,0-.02778-.00734.30676.30676,0,0,1-.11662-.03568.38344.38344,0,0,0-.08864-.03045.27883.27883,0,0,1-.04152-.01263.26053.26053,0,0,0-.078-.017.3489.3489,0,0,1-.13232-.03787A.488.488,0,0,0,1.353,1.6059l-.03258-.00631-.038-.00936-.03822-.00873a.56356.56356,0,0,1-.0693-.02349l-.03368-.01381c-.08783-.04595-.23036-.06631-.27923.04364-.00407.00815-.02036.00407-.02443.01222a.22422.22422,0,0,1-.00994.035c-.01449.02607-.03486.07086.00587.07494A.46187.46187,0,0,0,.9678,1.70089c.01678-.003.03356-.00579.05045-.00727a.24293.24293,0,0,1,.05115.00047l.03321.00314L1.136,1.703l.03553.01053.0331.008c.022.00553.04384.01155.06546.0179l.03165.0091a.39872.39872,0,0,0,.06516.0098.3121.3121,0,0,1,.14845.05328.23985.23985,0,0,0,.024.01526.14556.14556,0,0,0,.06267.01695c.01457.00006.02917.00065.0437.00032a.602.602,0,0,1,.07952-.00177c.02635.00294.05251.00779.07916.00958a.42512.42512,0,0,1,.09908.02079.18426.18426,0,0,0,.0568.0091l.00722.00021c.03347.003.06691.00752.10033.00857.03108.001.06212-.00237.0932-.00261a.11286.11286,0,0,1,.04936.00611l.00464.0042-.001.01161a.06408.06408,0,0,1-.04148.02177.17344.17344,0,0,1-.02847.0024.82891.82891,0,0,0-.1961.0334.80013.80013,0,0,1-.13476.01944.23761.23761,0,0,0-.08152.02232.30985.30985,0,0,0-.06156.03125.343.343,0,0,0-.0467.05582c-.011.01382-.021.02829-.03232.04188a.25842.25842,0,0,1-.0624.052.05853.05853,0,0,1-.03386.00915c-.039-.00131-.078-.00345-.11709-.00436a.29259.29259,0,0,0-.06551.002.44619.44619,0,0,1-.09464.00641c-.054-.00022-.108-.00084-.16217-.00247l-.03306-.00219c-.042-.00249-.08869-.00717-.136-.0091-.01576-.00064-.0316-.001-.04734-.00083-.06581-.002-.15879.00328-.195.05695a.08387.08387,0,0,0-.01318.03942.11288.11288,0,0,0,.00253.02544.12028.12028,0,0,0,.00881.02623.11872.11872,0,0,0,.01616.022c.01621.019.04879.03931.07235.0208C.73973,2.37974.74944,2.37964.75948,2.37917Z"></path><path d="M.67605,2.69064a.81238.81238,0,0,1,.14032-.03152L.843,2.65518c.02665-.00376.0534-.007.08016-.01l.03444-.00473L.99328,2.6393c.04742-.00246.09461-.00767.14228-.00615.04658.00149.09318-.00107.13967-.00226A.18123.18123,0,0,0,1.33146,2.618a.827.827,0,0,1,.1314-.03665.36961.36961,0,0,0,.06828-.0209.4991.4991,0,0,1,.13051-.03516.48873.48873,0,0,0,.1315-.03194c.02169-.00878.04474-.015.067-.02265a.04651.04651,0,0,0,.02861-.02682c.01424-.03364.02775-.06752.042-.10112.00587-.0138.01253-.02735.01972-.04062a.06222.06222,0,0,1,.03064-.02539.81343.81343,0,0,1,.19765-.05215.146.146,0,0,1,.04279.00219c.04276.00551.08539.01162.128.01769a.23293.23293,0,0,0,.05676.0004c.05884-.00589.11613-.01915.1752-.02271l.01375-.00213a.45493.45493,0,0,1,.09357-.026c.02935-.00677.059-.01306.08821-.02046l.16838-.04244a.0632.0632,0,0,0,.01936-.0069.31734.31734,0,0,1,.12592-.03251.33008.33008,0,0,0,.04154-.00419.12258.12258,0,0,1,.09429.01163.25545.25545,0,0,0,.0255.011.09474.09474,0,0,1,.05145.04182l.013.02263a.05746.05746,0,0,0,.031.025c.03489.01237.06949.02555.10491.03621.04435.01335.08789.02764.13075.045a.328.328,0,0,0,.134.02907c.02294-.00077.046.00078.06905.0013a.23078.23078,0,0,1,.08044.01606.17476.17476,0,0,1,.05233.03.39955.39955,0,0,0,.04254.03254.29679.29679,0,0,0,.04741.02571l.02556.00919c.03855.01726.08633.02792.12906.04547a.2905.2905,0,0,1,.031.01471.15015.15015,0,0,1,.0227.01366l.02078.0178c.008.01616.02429.0243.02836.04467a.13976.13976,0,0,0,.04748-.0653A.1509.1509,0,0,0,4.319,2.47013a.16741.16741,0,0,0-.04858-.15743.258.258,0,0,0-.09218-.059L4.14656,2.2371,4.11536,2.22l-.03576-.01925a.58506.58506,0,0,0-.1536-.05356l-.0299-.0069c-.02968-.00823-.05875-.01992-.08782-.03037a.14883.14883,0,0,1-.04107-.02351.22447.22447,0,0,0-.10073-.04112c-.01587-.003-.03208-.00445-.04817-.00641a.28157.28157,0,0,1-.03448-.00394.727.727,0,0,0-.13594-.02545.13246.13246,0,0,1-.06369-.0257c-.01895-.01268-.03764-.0257-.05626-.03882a.03034.03034,0,0,1-.00953-.03466A.03077.03077,0,0,1,3.34118,1.889a.12533.12533,0,0,1,.02738-.00292c.01857-.00014.03718.00082.05575.00091A.133.133,0,0,0,3.49,1.871a.54683.54683,0,0,1,.18448-.06361.18887.18887,0,0,0,.08122-.03019A.12481.12481,0,0,1,3.7902,1.758a.34.34,0,0,0,.03966-.01421c.0128-.00544.02524-.01146.03768-.01769l.03689-.01533c.013-.0059.02573-.01216.03845-.01923A.171.171,0,0,0,4.0546,1.539c-.01629.00407-.02851-.00407-.0466-.00869a.03575.03575,0,0,1-.01855-.03611c-.01222.05294-.0733.06108-.12217.06108a.06967.06967,0,0,0-.04649.01586l-.02227.01246-.02229.013-.03106.01317a.7282.7282,0,0,1-.08663.03553.06075.06075,0,0,0-.02264.01326.1812.1812,0,0,1-.09111.03967A.15455.15455,0,0,0,3.494,1.716a1.1282,1.1282,0,0,1-.22151.08351.15406.15406,0,0,1-.05476.00594.39665.39665,0,0,0-.09011.0047.21758.21758,0,0,1-.13077-.01116.07078.07078,0,0,0-.04151-.00378.28822.28822,0,0,0-.0341.00673A.1339.1339,0,0,1,2.813,1.787a.15277.15277,0,0,0-.06727-.01913A.3994.3994,0,0,0,2.682,1.76511a.51428.51428,0,0,1-.16132-.02072c-.05778-.01408-.11619-.02447-.175-.03273a.42623.42623,0,0,1-.10311-.02731.74275.74275,0,0,0-.21737-.046c-.01438-.00125-.02888-.00132-.04331-.00137a.11514.11514,0,0,1-.084-.03374.2036.2036,0,0,0-.0521-.03541c-.01889-.01-.03723-.02088-.056-.03114a.13092.13092,0,0,0-.02571-.01259C1.713,1.5095,1.666,1.48474,1.61362,1.47288A.23687.23687,0,0,1,1.565,1.45847a.298.298,0,0,0-.06914-.02242L1.45991,1.4305a1.66111,1.66111,0,0,1-.36584-.03813c-.04887-.02036-.09366.02443-.13885.04617a.2822.2822,0,0,0-.02607.02134.26213.26213,0,0,0-.05906.0791.23919.23919,0,0,1,.0898-.06424.26966.26966,0,0,1,.034-.01128c.10424-.03443.18975.03887.29194.05317l.02719.00472.02738.00324a.40394.40394,0,0,1,.09946.02425A.588.588,0,0,0,1.587,1.59a1.17133,1.17133,0,0,1,.17671.06446c.01484.00764.03088.01356.045.02208A.33026.33026,0,0,0,1.8816,1.706c.0573.01806.11369.03837.17044.05747.01358.00457.02749.00838.04138.012a.04274.04274,0,0,0,.02082.00327.14.14,0,0,1,.08436.00534.15834.15834,0,0,0,.03569.00315.29587.29587,0,0,1,.08507.01133.51494.51494,0,0,1,.158.04152.385.385,0,0,0,.13226.02114.55394.55394,0,0,1,.09861.01033c.02091.004.04186.00824.06229.01391a.40652.40652,0,0,0,.09078.012.526.526,0,0,1,.10446.01557.49427.49427,0,0,0,.0758.014l.00788.00825-.00461.01107a.05788.05788,0,0,1-.037.01537c-.04423.00309-.08859.00545-.133.00825-.03979.00252-.07963.005-.11944.008a.143.143,0,0,0-.02729.00536.34954.34954,0,0,1-.10318.01816.70178.70178,0,0,0-.18715.05265c-.01764.01024-.03564.02007-.05282.03091a.16835.16835,0,0,1-.06433.02395.905.905,0,0,1-.11719.00872c-.01809-.00256-.04664-.0061-.075-.01078A.21608.21608,0,0,0,2.043,2.10657a.387.387,0,0,1-.07146.00555.13018.13018,0,0,0-.07274.02363c-.04437.03177-.08817.06423-.132.09674a.09711.09711,0,0,0-.028.0364.29187.29187,0,0,1-.05057.069.23112.23112,0,0,1-.12269.07386.08257.08257,0,0,1-.04293-.0002.21752.21752,0,0,1-.03489-.00983.15062.15062,0,0,0-.09273-.00915.30094.30094,0,0,0-.04231.00936A.61317.61317,0,0,1,1.21848,2.43a.17047.17047,0,0,0-.06836.02109.21879.21879,0,0,1-.11954.02409A.20614.20614,0,0,0,.996,2.47692l-.03242-.0011-.0323-.00071a.211.211,0,0,1-.08315-.00389c-.014-.00276-.02791-.00581-.04188-.008a.135.135,0,0,0-.15611.06942.20321.20321,0,0,0-.01829.09815A.20928.20928,0,0,0,.63589,2.665c.00209.01415.01023.03452.02577.0305Z"></path></g>
</svg>
</g><g opacity="1" transform="rotate(0 396.7963 209.5314)">
<svg width="238.2037" height="92.2704" x="396.7963" y="209.5314" version="1.1" preserveAspectRatio="none" viewBox="4.8 -28 181.96 70.48">
  <g transform="matrix(1 0 0 1 0 0)" class="companyName"><path id="id-D6z1nYkh14" d="M20.36-3.96L7.52-28L4.80-28L4.80 0L6.56 0L6.56-22.84L6.72-22.84L19.08 0.48L19.80 0.48L32.44-22.68L32.60-22.68L32.60 0L36.24 0L36.24-28L33.48-28L20.52-3.96L20.36-3.96Z M63.76-9.96L63.76-9.96Q63.76-7.88 63.04-5.98Q62.32-4.08 60.98-2.64Q59.64-1.20 57.74-0.36Q55.84 0.48 53.48 0.48L53.48 0.48Q51.08 0.48 49.14-0.38Q47.20-1.24 45.86-2.68Q44.52-4.12 43.78-6.02Q43.04-7.92 43.04-9.96L43.04-9.96Q43.04-12.04 43.78-13.94Q44.52-15.84 45.86-17.28Q47.20-18.72 49.14-19.58Q51.08-20.44 53.48-20.44L53.48-20.44Q55.84-20.44 57.74-19.58Q59.64-18.72 60.98-17.28Q62.32-15.84 63.04-13.94Q63.76-12.04 63.76-9.96ZM59.96-9.96L59.96-9.96Q59.96-12.76 59.36-14.50Q58.76-16.24 57.80-17.20Q56.84-18.16 55.68-18.50Q54.52-18.84 53.44-18.84L53.44-18.84Q52.36-18.84 51.20-18.50Q50.04-18.16 49.06-17.20Q48.08-16.24 47.46-14.50Q46.84-12.76 46.84-9.96L46.84-9.96Q46.84-7.20 47.46-5.46Q48.08-3.72 49.06-2.76Q50.04-1.80 51.20-1.46Q52.36-1.12 53.44-1.12L53.44-1.12Q54.52-1.12 55.68-1.46Q56.84-1.80 57.80-2.76Q58.76-3.72 59.36-5.46Q59.96-7.20 59.96-9.96Z M72.36-20L68.96-20L68.96 0L72.36 0L72.36-12.08Q72.36-13.72 72.74-14.86Q73.12-16 73.72-16.72Q74.32-17.44 75.04-17.76Q75.76-18.08 76.44-18.08L76.44-18.08Q77.36-18.08 78.14-17.48Q78.92-16.88 79.28-16.36L79.28-16.36L80.64-18.84Q80.28-19.32 79.78-19.64Q79.28-19.96 78.78-20.14Q78.28-20.32 77.86-20.38Q77.44-20.44 77.24-20.44L77.24-20.44Q75.56-20.44 74.44-19.52Q73.32-18.60 72.60-16.80L72.60-16.80L72.36-16.80L72.36-20Z M85.72-18.40L82.24-18.40L82.24-20L85.72-20L85.72-26.16L89.12-26.16L89.12-20L93.96-20L93.96-18.40L89.12-18.40L89.12-5.12Q89.12-4.64 89.16-4.02Q89.20-3.40 89.40-2.86Q89.60-2.32 90.02-1.96Q90.44-1.60 91.20-1.60L91.20-1.60Q92.16-1.60 92.80-2.32Q93.44-3.04 93.84-3.88L93.84-3.88L95.72-1.96Q93.76 0 91.28 0L91.28 0Q90.24 0 89.24-0.36Q88.24-0.72 87.46-1.46Q86.68-2.20 86.20-3.36Q85.72-4.52 85.72-6.08L85.72-6.08L85.72-18.40Z M113.52-3.20L113.52 1.68Q113.52 3.52 113.08 4.80Q112.64 6.08 111.86 6.88Q111.08 7.68 110.02 8.04Q108.96 8.40 107.76 8.40L107.76 8.40Q105.64 8.40 104.34 7.32Q103.04 6.24 101.96 4.44L101.96 4.44L99.76 6.44Q100.04 6.80 100.64 7.38Q101.24 7.96 102.16 8.54Q103.08 9.12 104.36 9.54Q105.64 9.96 107.28 9.96L107.28 9.96Q110.32 9.96 112.20 9.10Q114.08 8.24 115.12 6.80Q116.16 5.36 116.54 3.50Q116.92 1.64 116.92-0.36L116.92-0.36L116.92-20L113.52-20L113.52-16.88L113.36-16.88Q112.88-18.56 111.30-19.50Q109.72-20.44 107.16-20.44L107.16-20.44Q105.12-20.44 103.44-19.70Q101.76-18.96 100.56-17.60Q99.36-16.24 98.70-14.32Q98.04-12.40 98.04-10.04L98.04-10.04Q98.04-7.64 98.70-5.70Q99.36-3.76 100.56-2.38Q101.76-1 103.42-0.26Q105.08 0.48 107.12 0.48L107.12 0.48Q109.36 0.48 111.02-0.40Q112.68-1.28 113.36-3.20L113.36-3.20L113.52-3.20ZM113.52-11.48L113.52-8.52Q113.52-6.84 113.06-5.56Q112.60-4.28 111.84-3.40Q111.08-2.52 110.08-2.06Q109.08-1.60 108-1.60L108-1.60Q107.04-1.60 105.94-1.94Q104.84-2.28 103.90-3.20Q102.96-4.12 102.34-5.80Q101.72-7.48 101.72-10.12L101.72-10.12Q101.72-12.92 102.48-14.58Q103.24-16.24 104.26-17.12Q105.28-18 106.34-18.26Q107.40-18.52 108-18.52L108-18.52Q109.32-18.52 110.36-17.94Q111.40-17.36 112.10-16.38Q112.80-15.40 113.16-14.12Q113.52-12.84 113.52-11.48L113.52-11.48Z M130.68-20.44L130.68-20.44Q133.60-20.44 135.20-19.62Q136.80-18.80 137.54-17.48Q138.28-16.16 138.40-14.44Q138.52-12.72 138.52-10.92L138.52-10.92L138.52 0L135.28 0L135.28-1.96Q134.12-0.84 132.32-0.18Q130.52 0.48 128.72 0.48L128.72 0.48Q127.00 0.48 125.68-0.12Q124.36-0.72 123.48-1.68Q122.60-2.64 122.16-3.84Q121.72-5.04 121.72-6.28L121.72-6.28Q121.72-7.56 122.20-8.84Q122.68-10.12 123.64-11.14Q124.60-12.16 126.00-12.80Q127.40-13.44 129.20-13.44L129.20-13.44Q131-13.44 132.62-12.74Q134.24-12.04 135.28-10.76L135.28-10.76L135.28-12.48Q135.28-15.76 134.30-17.36Q133.32-18.96 130.72-18.96L130.72-18.96Q129.60-18.96 128.76-18.68Q127.92-18.40 127.26-17.90Q126.60-17.40 126.04-16.66Q125.48-15.92 124.92-15L124.92-15L122.84-17.08Q123.40-17.68 124.02-18.28Q124.64-18.88 125.54-19.36Q126.44-19.84 127.68-20.14Q128.92-20.44 130.68-20.44ZM135.28-4.84L135.28-7.92Q135.08-8.40 134.70-9.04Q134.32-9.68 133.72-10.28Q133.12-10.88 132.28-11.30Q131.44-11.72 130.28-11.72L130.28-11.72Q129.12-11.72 128.16-11.26Q127.20-10.80 126.54-10.06Q125.88-9.32 125.52-8.32Q125.16-7.32 125.16-6.24L125.16-6.24Q125.16-4.96 125.62-4.02Q126.08-3.08 126.80-2.42Q127.52-1.76 128.40-1.44Q129.28-1.12 130.08-1.12L130.08-1.12Q130.84-1.12 131.62-1.40Q132.40-1.68 133.10-2.18Q133.80-2.68 134.36-3.36Q134.92-4.04 135.28-4.84L135.28-4.84Z M159.20-3.20L159.20 1.68Q159.20 3.52 158.76 4.80Q158.32 6.08 157.54 6.88Q156.76 7.68 155.70 8.04Q154.64 8.40 153.44 8.40L153.44 8.40Q151.32 8.40 150.02 7.32Q148.72 6.24 147.64 4.44L147.64 4.44L145.44 6.44Q145.72 6.80 146.32 7.38Q146.92 7.96 147.84 8.54Q148.76 9.12 150.04 9.54Q151.32 9.96 152.96 9.96L152.96 9.96Q156 9.96 157.88 9.10Q159.76 8.24 160.80 6.80Q161.84 5.36 162.22 3.50Q162.60 1.64 162.60-0.36L162.60-0.36L162.60-20L159.20-20L159.20-16.88L159.04-16.88Q158.56-18.56 156.98-19.50Q155.40-20.44 152.84-20.44L152.84-20.44Q150.80-20.44 149.12-19.70Q147.44-18.96 146.24-17.60Q145.04-16.24 144.38-14.32Q143.72-12.40 143.72-10.04L143.72-10.04Q143.72-7.64 144.38-5.70Q145.04-3.76 146.24-2.38Q147.44-1 149.10-0.26Q150.76 0.48 152.80 0.48L152.80 0.48Q155.04 0.48 156.70-0.40Q158.36-1.28 159.04-3.20L159.04-3.20L159.20-3.20ZM159.20-11.48L159.20-8.52Q159.20-6.84 158.74-5.56Q158.28-4.28 157.52-3.40Q156.76-2.52 155.76-2.06Q154.76-1.60 153.68-1.60L153.68-1.60Q152.72-1.60 151.62-1.94Q150.52-2.28 149.58-3.20Q148.64-4.12 148.02-5.80Q147.40-7.48 147.40-10.12L147.40-10.12Q147.40-12.92 148.16-14.58Q148.92-16.24 149.94-17.12Q150.96-18 152.02-18.26Q153.08-18.52 153.68-18.52L153.68-18.52Q155-18.52 156.04-17.94Q157.08-17.36 157.78-16.38Q158.48-15.40 158.84-14.12Q159.20-12.84 159.20-11.48L159.20-11.48Z M171.56-9.12L186.76-9.12L186.76-9.96Q186.76-12.64 186-14.60Q185.24-16.56 183.94-17.84Q182.64-19.12 180.92-19.76Q179.20-20.40 177.28-20.40L177.28-20.40Q175.24-20.40 173.52-19.70Q171.80-19 170.52-17.66Q169.24-16.32 168.52-14.42Q167.80-12.52 167.80-10.12L167.80-10.12Q167.80-8.12 168.42-6.22Q169.04-4.32 170.30-2.82Q171.56-1.32 173.50-0.42Q175.44 0.48 178.08 0.48L178.08 0.48Q180.64 0.48 182.80-0.42Q184.96-1.32 186.56-3L186.56-3L185.28-4.28Q184.44-3.56 183.70-2.96Q182.96-2.36 182.20-1.96Q181.44-1.56 180.62-1.34Q179.80-1.12 178.80-1.12L178.80-1.12Q177.68-1.12 176.42-1.46Q175.16-1.80 174.08-2.68Q173-3.56 172.28-5.12Q171.56-6.68 171.56-9.12L171.56-9.12ZM183.28-10.72L171.56-10.72Q171.56-12.32 171.90-13.82Q172.24-15.32 172.94-16.48Q173.64-17.64 174.72-18.34Q175.80-19.04 177.28-19.04L177.28-19.04Q180.12-19.04 181.70-16.82Q183.28-14.60 183.28-10.72L183.28-10.72Z M14.48 42L4.80 42L4.80 14L14.00 14Q17.32 14 20.08 15.06Q22.84 16.12 24.82 17.98Q26.80 19.84 27.90 22.40Q29 24.96 29 27.92L29 27.92Q29 31 27.86 33.58Q26.72 36.16 24.74 38.04Q22.76 39.92 20.12 40.96Q17.48 42 14.48 42L14.48 42ZM8.44 15.76L8.44 40.24L12.84 40.24Q16.12 40.24 18.42 39.14Q20.72 38.04 22.20 36.28Q23.68 34.52 24.36 32.34Q25.04 30.16 25.04 28L25.04 28Q25.04 25.60 24.24 23.38Q23.44 21.16 21.90 19.46Q20.36 17.76 18.08 16.76Q15.80 15.76 12.84 15.76L12.84 15.76L8.44 15.76Z M52.92 32.04L52.92 32.04Q52.92 34.12 52.20 36.02Q51.48 37.92 50.14 39.36Q48.80 40.80 46.90 41.64Q45 42.48 42.64 42.48L42.64 42.48Q40.24 42.48 38.30 41.62Q36.36 40.76 35.02 39.32Q33.68 37.88 32.94 35.98Q32.20 34.08 32.20 32.04L32.20 32.04Q32.20 29.96 32.94 28.06Q33.68 26.16 35.02 24.72Q36.36 23.28 38.30 22.42Q40.24 21.56 42.64 21.56L42.64 21.56Q45 21.56 46.90 22.42Q48.80 23.28 50.14 24.72Q51.48 26.16 52.20 28.06Q52.92 29.96 52.92 32.04ZM49.12 32.04L49.12 32.04Q49.12 29.24 48.52 27.50Q47.92 25.76 46.96 24.80Q46 23.84 44.84 23.50Q43.68 23.16 42.60 23.16L42.60 23.16Q41.52 23.16 40.36 23.50Q39.20 23.84 38.22 24.80Q37.24 25.76 36.62 27.50Q36 29.24 36 32.04L36 32.04Q36 34.80 36.62 36.54Q37.24 38.28 38.22 39.24Q39.20 40.20 40.36 40.54Q41.52 40.88 42.60 40.88L42.60 40.88Q43.68 40.88 44.84 40.54Q46 40.20 46.96 39.24Q47.92 38.28 48.52 36.54Q49.12 34.80 49.12 32.04Z M58.12 42L61.52 42L61.52 30.60Q61.52 29.88 61.64 28.70Q61.76 27.52 62.26 26.38Q62.76 25.24 63.80 24.42Q64.84 23.60 66.72 23.60L66.72 23.60Q68.08 23.60 68.82 24.20Q69.56 24.80 69.92 25.68Q70.28 26.56 70.34 27.52Q70.40 28.48 70.40 29.20L70.40 29.20L70.40 42L73.80 42L73.80 30.60Q73.80 29.72 73.96 28.50Q74.12 27.28 74.64 26.20Q75.16 25.12 76.14 24.36Q77.12 23.60 78.80 23.60L78.80 23.60Q80.04 23.60 80.80 23.96Q81.56 24.32 81.98 25.04Q82.40 25.76 82.54 26.80Q82.68 27.84 82.68 29.20L82.68 29.20L82.68 42L86.08 42L86.08 28.04Q86.08 27.12 85.88 25.98Q85.68 24.84 85.02 23.86Q84.36 22.88 83.10 22.22Q81.84 21.56 79.76 21.56L79.76 21.56Q79.16 21.56 78.36 21.68Q77.56 21.80 76.68 22.20Q75.80 22.60 74.98 23.36Q74.16 24.12 73.56 25.36L73.56 25.36L73.28 25.36Q73.04 24.72 72.60 24.06Q72.16 23.40 71.48 22.84Q70.80 22.28 69.86 21.92Q68.92 21.56 67.60 21.56L67.60 21.56Q67 21.56 66.16 21.70Q65.32 21.84 64.48 22.24Q63.64 22.64 62.90 23.36Q62.16 24.08 61.68 25.24L61.68 25.24L61.52 25.24L61.52 22L58.12 22L58.12 42Z M99.84 21.56L99.84 21.56Q102.76 21.56 104.36 22.38Q105.96 23.20 106.70 24.52Q107.44 25.84 107.56 27.56Q107.68 29.28 107.68 31.08L107.68 31.08L107.68 42L104.44 42L104.44 40.04Q103.28 41.16 101.48 41.82Q99.68 42.48 97.88 42.48L97.88 42.48Q96.16 42.48 94.84 41.88Q93.52 41.28 92.64 40.32Q91.76 39.36 91.32 38.16Q90.88 36.96 90.88 35.72L90.88 35.72Q90.88 34.44 91.36 33.16Q91.84 31.88 92.80 30.86Q93.76 29.84 95.16 29.20Q96.56 28.56 98.36 28.56L98.36 28.56Q100.16 28.56 101.78 29.26Q103.40 29.96 104.44 31.24L104.44 31.24L104.44 29.52Q104.44 26.24 103.46 24.64Q102.48 23.04 99.88 23.04L99.88 23.04Q98.76 23.04 97.92 23.32Q97.08 23.60 96.42 24.10Q95.76 24.60 95.20 25.34Q94.64 26.08 94.08 27L94.08 27L92 24.92Q92.56 24.32 93.18 23.72Q93.80 23.12 94.70 22.64Q95.60 22.16 96.84 21.86Q98.08 21.56 99.84 21.56ZM104.44 37.16L104.44 34.08Q104.24 33.60 103.86 32.96Q103.48 32.32 102.88 31.72Q102.28 31.12 101.44 30.70Q100.60 30.28 99.44 30.28L99.44 30.28Q98.28 30.28 97.32 30.74Q96.36 31.20 95.70 31.94Q95.04 32.68 94.68 33.68Q94.32 34.68 94.32 35.76L94.32 35.76Q94.32 37.04 94.78 37.98Q95.24 38.92 95.96 39.58Q96.68 40.24 97.56 40.56Q98.44 40.88 99.24 40.88L99.24 40.88Q100 40.88 100.78 40.60Q101.56 40.32 102.26 39.82Q102.96 39.32 103.52 38.64Q104.08 37.96 104.44 37.16L104.44 37.16Z M118.76 22L115.36 22L115.36 42L118.76 42L118.76 22ZM114.88 15.68L114.88 15.68Q114.88 16.56 115.52 17.20Q116.16 17.84 117.04 17.84L117.04 17.84Q117.92 17.84 118.56 17.20Q119.20 16.56 119.20 15.68L119.20 15.68Q119.20 14.80 118.56 14.16Q117.92 13.52 117.04 13.52L117.04 13.52Q116.16 13.52 115.52 14.16Q114.88 14.80 114.88 15.68Z M139.72 42L143.12 42L143.12 29.04Q143.12 28.32 143 27.06Q142.88 25.80 142.22 24.58Q141.56 23.36 140.12 22.46Q138.68 21.56 136.04 21.56L136.04 21.56Q134.88 21.52 133.44 22.02Q132 22.52 130.60 23.92L130.60 23.92L129.96 24.56L129.80 24.56L129.80 22L126.40 22L126.40 42L129.80 42L129.80 29.64Q129.80 28.08 130.24 26.96Q130.68 25.84 131.44 25.08Q132.20 24.32 133.18 23.96Q134.16 23.60 135.20 23.60L135.20 23.60Q136.88 23.60 137.80 24.26Q138.72 24.92 139.14 25.80Q139.56 26.68 139.64 27.56Q139.72 28.44 139.72 28.84L139.72 28.84L139.72 42Z"/></g>
</svg>
</g><g opacity="1" transform="rotate(0 369.8841 197.9976)">
<svg width="2.3068" height="115.3381" x="369.8841" y="197.9976" version="1.1" preserveAspectRatio="none" viewBox="0 0 2.3068 115.3381">
  <rect x="0" y="0" width="2.3068" height="115.3381" class="companyName shapeStroke-str" style="stroke-width:0;" rx="0px" ry="0px" />
</svg>
</g></svg>